<svg width="17" height="13" viewBox="0 0 17 13" fill="none" xmlns="http://www.w3.org/2000/svg">
<path d="M15.2292 11.4583H1.77083C1.33541 11.4583 0.979159 11.7771 0.979159 12.1667C0.979159 12.5563 1.33541 12.875 1.77083 12.875H15.2292C15.6646 12.875 16.0208 12.5563 16.0208 12.1667C16.0208 11.7771 15.6646 11.4583 15.2292 11.4583ZM16.4721 4.82834C16.2979 4.26167 15.6487 3.92876 15.0154 4.07751L10.8117 5.08334L5.69749 0.819172C5.59168 0.729439 5.46157 0.665918 5.31997 0.634866C5.17838 0.603814 5.03019 0.606304 4.88999 0.642089C4.35166 0.776672 4.09833 1.32917 4.37541 1.76126L7.09874 5.98292L3.16416 6.92501L1.92124 6.04667C1.72333 5.91209 1.46999 5.86251 1.22458 5.91917L0.963326 5.98292C0.709992 6.03959 0.591242 6.30167 0.725826 6.50001L2.21416 8.80209C2.39624 9.07834 2.76041 9.21292 3.10083 9.13501L15.625 6.13167C16.2583 5.97584 16.6383 5.39501 16.4721 4.82834Z" fill="#92DD99"/>
</svg>
