<svg width="10" height="16" viewBox="0 0 10 16" fill="none" xmlns="http://www.w3.org/2000/svg">
<path d="M8.00038 1.50007C8.00038 2.32855 7.32848 3.00015 6.50031 3.00015C5.67215 3.00015 5.00024 2.32855 5.00024 1.50007C5.00024 0.671595 5.67215 0 6.50031 0C7.32848 0 8.00038 0.671595 8.00038 1.50007ZM3.95331 6.22843C3.92519 6.24093 3.89394 6.25343 3.86581 6.26593L3.52204 6.41906C3.04421 6.63157 2.6695 7.01909 2.47574 7.50349L2.42855 7.62225C2.22354 8.13477 1.64164 8.38478 1.1288 8.17852C0.615967 7.97227 0.36658 7.39099 0.57159 6.87846L0.61878 6.75971C1.00599 5.79403 1.75571 5.01587 2.70825 4.59085L3.05202 4.43772C3.7033 4.1502 4.37833 4.0002 5.11587 4.0002C6.50969 4.0002 7.766 4.83774 8.3004 6.12217L8.75354 7.27223L9.44733 7.60662C9.9411 7.85351 10.1411 8.45354 9.89422 8.94731C9.64734 9.44109 9.04731 9.6411 8.55354 9.39421L7.71912 8.97856C7.39723 8.81606 7.14409 8.54417 7.00659 8.2129L6.70657 7.49412L6.10342 9.54109L7.65037 11.2318C7.81912 11.4162 7.94101 11.6381 8.00038 11.8818L8.71917 14.757C8.85355 15.2945 8.52853 15.8383 7.99413 15.9695C7.45661 16.1039 6.91283 15.7789 6.75345 15.2445L6.09092 12.4881L3.88456 10.0786C3.42204 9.57547 3.22203 8.87231 3.42516 8.2129L3.95331 6.22843ZM2.14792 12.4381L2.92795 10.488C2.99514 10.5818 3.06765 10.6693 3.14703 10.7568L4.41896 12.1443L3.96582 13.2756C3.89081 13.4663 3.77831 13.6382 3.63455 13.7788L1.70727 15.707C1.31663 16.0977 0.68347 16.0977 0.292889 15.707C-0.0976297 15.3164 -0.0976297 14.6851 0.292889 14.2944L2.14792 12.4381Z" fill="#92DD99"/>
</svg>
