<svg width="27" height="28" viewBox="0 0 27 28" fill="none" xmlns="http://www.w3.org/2000/svg">
<path d="M19.125 14C18.8266 14 18.5405 14.1229 18.3295 14.3417C18.1185 14.5605 18 14.8572 18 15.1667C18 15.4761 18.1185 15.7728 18.3295 15.9916C18.5405 16.2104 18.8266 16.3333 19.125 16.3333H21.375C21.6734 16.3333 21.9595 16.2104 22.1705 15.9916C22.3815 15.7728 22.5 15.4761 22.5 15.1667C22.5 14.8572 22.3815 14.5605 22.1705 14.3417C21.9595 14.1229 21.6734 14 21.375 14H19.125ZM3.375 0C2.47989 0 1.62145 0.368749 0.988515 1.02513C0.355579 1.6815 0 2.57174 0 3.5V22.1667C0 23.7138 0.592632 25.1975 1.64752 26.2915C2.70242 27.3854 4.13316 28 5.625 28H22.5C23.6935 28 24.8381 27.5083 25.682 26.6332C26.5259 25.758 27 24.571 27 23.3333V9.33333C27 8.51418 26.792 7.70947 26.3971 7.00007C26.0021 6.29067 25.4341 5.70158 24.75 5.292V4.66667C24.75 3.42899 24.2759 2.242 23.432 1.36683C22.5881 0.491665 21.4435 0 20.25 0H3.375ZM3.375 2.33333H20.25C20.8467 2.33333 21.419 2.57917 21.841 3.01675C22.2629 3.45434 22.5 4.04783 22.5 4.66667H3.375C3.07663 4.66667 2.79048 4.54375 2.5795 4.32496C2.36853 4.10616 2.25 3.80942 2.25 3.5C2.25 3.19058 2.36853 2.89383 2.5795 2.67504C2.79048 2.45625 3.07663 2.33333 3.375 2.33333ZM3.375 7H22.5C23.0967 7 23.669 7.24583 24.091 7.68342C24.5129 8.121 24.75 8.71449 24.75 9.33333V23.3333C24.75 23.9522 24.5129 24.5457 24.091 24.9832C23.669 25.4208 23.0967 25.6667 22.5 25.6667H5.625C4.72989 25.6667 3.87145 25.2979 3.23851 24.6415C2.60558 23.9852 2.25 23.0949 2.25 22.1667V6.80167C2.601 6.93 2.98125 7 3.375 7Z" fill="#FBFEFB"/>
</svg>
