<svg width="13" height="16" viewBox="0 0 13 16" fill="none" xmlns="http://www.w3.org/2000/svg">
<path d="M6.50001 0.125C4.95071 0.126935 3.46539 0.779452 2.36987 1.93941C1.27435 3.09938 0.658084 4.67207 0.656256 6.3125C0.654401 7.65306 1.06796 8.95725 1.83351 10.025C1.83351 10.025 1.99288 10.2472 2.01891 10.2793L6.50001 15.875L10.9832 10.2764C11.0066 10.2466 11.1665 10.025 11.1665 10.025L11.167 10.0233C11.9322 8.95603 12.3456 7.65245 12.3438 6.3125C12.3419 4.67207 11.7257 3.09938 10.6301 1.93941C9.53462 0.779452 8.0493 0.126935 6.50001 0.125ZM6.50001 8.5625C6.07972 8.5625 5.66887 8.43054 5.31942 8.18331C4.96997 7.93607 4.6976 7.58467 4.53676 7.17354C4.37593 6.7624 4.33384 6.31 4.41584 5.87355C4.49783 5.43709 4.70022 5.03618 4.9974 4.72151C5.29459 4.40684 5.67323 4.19255 6.08544 4.10573C6.49765 4.01892 6.92492 4.06347 7.31321 4.23377C7.7015 4.40407 8.03338 4.69246 8.26688 5.06247C8.50038 5.43248 8.62501 5.86749 8.62501 6.3125C8.6243 6.90901 8.40019 7.48087 8.00183 7.90267C7.60347 8.32446 7.06338 8.56176 6.50001 8.5625Z" fill="#92DD99"/>
</svg>
