<svg width="20" height="22" viewBox="0 0 20 22" fill="none" xmlns="http://www.w3.org/2000/svg">
<path fill-rule="evenodd" clip-rule="evenodd" d="M10 0C9.05126 0 7.46588 0.364375 5.97401 0.77C4.44776 1.1825 2.90913 1.67062 2.00438 1.96625C1.62611 2.09117 1.29074 2.32026 1.03682 2.62721C0.782892 2.93416 0.620702 3.30652 0.568882 3.7015C-0.250618 9.85738 1.65101 14.4196 3.95826 17.4377C4.93668 18.7288 6.1033 19.8658 7.41913 20.8106C7.94988 21.186 8.44213 21.4734 8.86013 21.67C9.24513 21.8515 9.65901 22 10 22C10.341 22 10.7535 21.8515 11.1399 21.67C11.6438 21.4251 12.1259 21.1376 12.5809 20.8106C13.8967 19.8658 15.0634 18.7288 16.0418 17.4377C18.349 14.4196 20.2506 9.85738 19.4311 3.7015C19.3794 3.30633 19.2173 2.93376 18.9633 2.62657C18.7094 2.31939 18.374 2.09004 17.9956 1.96487C16.6822 1.53424 15.3586 1.13538 14.026 0.768625C12.5341 0.36575 10.9488 0 10 0ZM12.9508 7.07575C13.0799 6.94666 13.2549 6.87413 13.4375 6.87413C13.6201 6.87413 13.7952 6.94666 13.9243 7.07575C14.0534 7.20484 14.1259 7.37993 14.1259 7.5625C14.1259 7.74507 14.0534 7.92016 13.9243 8.04925L9.79926 12.1742C9.73539 12.2383 9.65953 12.2891 9.576 12.3237C9.49248 12.3584 9.40294 12.3762 9.31251 12.3762C9.22208 12.3762 9.13253 12.3584 9.04901 12.3237C8.96549 12.2891 8.88962 12.2383 8.82576 12.1742L6.76326 10.1117C6.69934 10.0478 6.64863 9.97194 6.61404 9.88843C6.57944 9.80491 6.56164 9.7154 6.56164 9.625C6.56164 9.5346 6.57944 9.44509 6.61404 9.36157C6.64863 9.27806 6.69934 9.20217 6.76326 9.13825C6.82718 9.07433 6.90306 9.02362 6.98658 8.98903C7.0701 8.95444 7.15961 8.93663 7.25001 8.93663C7.3404 8.93663 7.42992 8.95444 7.51343 8.98903C7.59695 9.02362 7.67284 9.07433 7.73676 9.13825L9.31251 10.7154L12.9508 7.07575Z" fill="#0E670E"/>
</svg>
